# xmcd
#
# Track frame offsets: 
#        150
#        9907
#        18374
#        25379
#        31460
#        38219
#        46922
#        55475
#        64297
#        79244
#        91517
#        98356
#
# Disc length: 1455 seconds
#
# Revision: 0
# Processed by: cddbd v1.5.2PL0 Copyright (c) Steve Scherf et al.
# Submitted via: ExactAudioCopy v0.99pb5
#
DISCID=8705ad0c
DTITLE=Elvis Presley - Girl Happy
DYEAR=1965
DGENRE=A Cappella
TTITLE0=Girl Happy
TTITLE1=Spring Fever
TTITLE2=Fort Lauderdale Chamber Of Commerce
TTITLE3=Startin' Tonight
TTITLE4=Wolf Call
TTITLE5=Do Not Disturb
TTITLE6=Cross My Heart And Hope To Die
TTITLE7=The Meanest Girl In Town
TTITLE8=Do The Clam
TTITLE9=Puppet On A String
TTITLE10=I've Got To Find My Baby
TTITLE11=You'll Be Gone
EXTD=
EXTT0=
EXTT1=
EXTT2=
EXTT3=
EXTT4=
EXTT5=
EXTT6=
EXTT7=
EXTT8=
EXTT9=
EXTT10=
EXTT11=
PLAYORDER=
